{
  "accessors": [
    {
      "bufferView": 2,
      "componentType": 5126,
      "count": 794,
      "max": [
        0.15511201322078705,
        0.02027302049100399,
        0.018671875819563866
      ],
      "min": [
        -0.15375593304634094,
        -0.022011358290910721,
        -0.019853156059980392
      ],
      "type": "VEC3"
    },
    {
      "bufferView": 2,
      "byteOffset": 9528,
      "componentType": 5126,
      "count": 794,
      "max": [
        1,
        0.99997735023498535,
        0.99999284744262695
      ],
      "min": [
        -1,
        -0.99997735023498535,
        -0.99999284744262695
      ],
      "type": "VEC3"
    },
    {
      "bufferView": 3,
      "componentType": 5126,
      "count": 794,
      "max": [
        0.067417219281196594,
        1,
        0.99999690055847168,
        1
      ],
      "min": [
        -0.11045540869235992,
        -0.99999362230300903,
        -0.99989420175552368,
        -1
      ],
      "type": "VEC4"
    },
    {
      "bufferView": 1,
      "componentType": 5126,
      "count": 794,
      "max": [
        0.99440932273864746,
        0.58942091464996338
      ],
      "min": [
        0.0055907606147229671,
        0.0055907606147229671
      ],
      "type": "VEC2"
    },
    {
      "bufferView": 1,
      "byteOffset": 6352,
      "componentType": 5126,
      "count": 794,
      "max": [
        0.99440932273864746,
        0.58942091464996338
      ],
      "min": [
        0.0055907606147229671,
        0.0055907606147229671
      ],
      "type": "VEC2"
    },
    {
      "bufferView": 1,
      "byteOffset": 12704,
      "componentType": 5126,
      "count": 794,
      "max": [
        0.99440932273864746,
        0.58942091464996338
      ],
      "min": [
        0.0055907606147229671,
        0.0055907606147229671
      ],
      "type": "VEC2"
    },
    {
      "bufferView": 0,
      "componentType": 5125,
      "count": 3840,
      "max": [
        793
      ],
      "min": [
        0
      ],
      "type": "SCALAR"
    }
  ],
  "asset": {
    "extras": {
      "author": "Kigha (https://sketchfab.com/Kigha)",
      "license": "CC-BY-4.0 (http://creativecommons.org/licenses/by/4.0/)",
      "source": "https://sketchfab.com/3d-models/old-ancient-scroll-73e9333251c7490786f99e67beb41d6e",
      "title": "Old / Ancient Scroll"
    },
    "generator": "Sketchfab-8.55.0",
    "version": "2.0"
  },
  "bufferViews": [
    {
      "buffer": 0,
      "byteLength": 15360,
      "byteOffset": 0,
      "name": "floatBufferViews",
      "target": 34963
    },
    {
      "buffer": 0,
      "byteLength": 19056,
      "byteOffset": 15360,
      "byteStride": 8,
      "name": "floatBufferViews",
      "target": 34962
    },
    {
      "buffer": 0,
      "byteLength": 19056,
      "byteOffset": 34416,
      "byteStride": 12,
      "name": "floatBufferViews",
      "target": 34962
    },
    {
      "buffer": 0,
      "byteLength": 12704,
      "byteOffset": 53472,
      "byteStride": 16,
      "name": "floatBufferViews",
      "target": 34962
    }
  ],
  "buffers": [
    {
      "byteLength": 66176,
      "uri": "scene.bin"
    }
  ],
  "images": [
    {
      "uri": "textures/Scroll_baseColor.png"
    },
    {
      "uri": "textures/Scroll_metallicRoughness.png"
    },
    {
      "uri": "textures/Scroll_normal.png"
    }
  ],
  "materials": [
    {
      "doubleSided": true,
      "name": "Scroll",
      "normalTexture": {
        "index": 2,
        "scale": 1,
        "texCoord": 0
      },
      "pbrMetallicRoughness": {
        "baseColorFactor": [
          1,
          1,
          1,
          1
        ],
        "baseColorTexture": {
          "index": 0,
          "texCoord": 0
        },
        "metallicFactor": 1,
        "metallicRoughnessTexture": {
          "index": 1,
          "texCoord": 0
        },
        "roughnessFactor": 1
      }
    }
  ],
  "meshes": [
    {
      "name": "Scroll_Scroll_0",
      "primitives": [
        {
          "attributes": {
            "NORMAL": 1,
            "POSITION": 0,
            "TANGENT": 2,
            "TEXCOORD_0": 3,
            "TEXCOORD_1": 4,
            "TEXCOORD_2": 5
          },
          "indices": 6,
          "material": 0,
          "mode": 4
        }
      ]
    }
  ],
  "nodes": [
    {
      "children": [
        1
      ],
      "name": "RootNode (gltf orientation matrix)",
      "rotation": [
        -0.70710678118654746,
        -0,
        -0,
        0.70710678118654757
      ]
    },
    {
      "children": [
        2
      ],
      "name": "RootNode (model correction matrix)"
    },
    {
      "children": [
        3
      ],
      "matrix": [
        1,
        0,
        0,
        0,
        0,
        0,
        1,
        0,
        0,
        -1,
        0,
        0,
        0,
        0,
        0,
        1
      ],
      "name": "Scroll.fbx"
    },
    {
      "children": [
        4
      ],
      "name": "RootNode"
    },
    {
      "children": [
        5
      ],
      "matrix": [
        100,
        0,
        0,
        0,
        -0,
        -1.6292067939183141e-05,
        -99.999999999998678,
        0,
        0,
        99.999999999998678,
        -1.6292067939183141e-05,
        0,
        -0.0025754352100193501,
        1.9824100732803345,
        -0.018526842817664146,
        1
      ],
      "name": "Scroll"
    },
    {
      "mesh": 0,
      "name": "Scroll_Scroll_0"
    }
  ],
  "samplers": [
    {
      "magFilter": 9729,
      "minFilter": 9987,
      "wrapS": 10497,
      "wrapT": 10497
    }
  ],
  "scene": 0,
  "scenes": [
    {
      "name": "OSG_Scene",
      "nodes": [
        0
      ]
    }
  ],
  "textures": [
    {
      "sampler": 0,
      "source": 0
    },
    {
      "sampler": 0,
      "source": 1
    },
    {
      "sampler": 0,
      "source": 2
    }
  ]
}

